<?xml version="1.0" encoding="UTF-8"?>
<svg version="1.1" xmlns="http://www.w3.org/2000/svg" width="195" height="171">
<path d="M0 0 C64.35 0 128.7 0 195 0 C195 56.43 195 112.86 195 171 C130.65 171 66.3 171 0 171 C0 114.57 0 58.14 0 0 Z " fill="#FDFEFD" transform="translate(0,0)"/>
<path d="M0 0 C0.88171875 -0.00128906 1.7634375 -0.00257812 2.671875 -0.00390625 C3.579375 -0.00003906 4.486875 0.00382812 5.421875 0.0078125 C6.34484375 0.00394531 7.2678125 0.00007813 8.21875 -0.00390625 C9.0953125 -0.00261719 9.971875 -0.00132813 10.875 0 C11.67583008 0.00112793 12.47666016 0.00225586 13.30175781 0.00341797 C15.171875 0.1328125 15.171875 0.1328125 16.171875 1.1328125 C16.21251332 2.79898365 16.214596 4.46669345 16.171875 6.1328125 C13.71770148 7.35989926 12.04670582 7.2739257 9.3046875 7.30859375 C8.33660156 7.33244141 7.36851562 7.35628906 6.37109375 7.38085938 C4.32963656 7.42365994 2.28790542 7.45500171 0.24609375 7.47460938 C-0.72457031 7.50232422 -1.69523438 7.53003906 -2.6953125 7.55859375 C-3.58331543 7.57317627 -4.47131836 7.58775879 -5.38623047 7.6027832 C-8.64623162 8.31038793 -9.77280586 9.53742163 -11.828125 12.1328125 C-13.05835452 14.56931524 -13.05835452 14.56931524 -13.94921875 17.3125 C-14.32087158 18.36856445 -14.69252441 19.42462891 -15.07543945 20.51269531 C-15.46820068 21.66608398 -15.86096191 22.81947266 -16.265625 24.0078125 C-16.89827271 25.81523926 -16.89827271 25.81523926 -17.54370117 27.65917969 C-19.85827873 34.28357831 -22.10108871 40.93201133 -24.33232117 47.58486938 C-25.48110691 51.00780688 -26.63614659 54.42862681 -27.79055786 57.84967041 C-28.62695668 60.34208182 -29.45048034 62.83849265 -30.27319336 65.33544922 C-32.7985651 72.90220815 -35.28008421 79.50830946 -39.828125 86.1328125 C-40.09765185 89.33004439 -40.09765185 89.33004439 -37.828125 92.2578125 C-35.33203929 96.50742078 -34.83087577 100.30315919 -35.828125 105.1328125 C-37.2185152 108.02905784 -38.88172567 110.58163909 -40.828125 113.1328125 C-33.25405762 115.35306926 -25.66573372 117.02134527 -17.91796875 118.484375 C-14.828125 119.1328125 -14.828125 119.1328125 -12.828125 120.1328125 C-12.828125 122.1128125 -12.828125 124.0928125 -12.828125 126.1328125 C-18.45848284 125.74862338 -23.87475045 124.955008 -29.390625 123.7578125 C-62.65064054 117.01950596 -99.71916618 115.73626331 -132.66967773 124.95019531 C-136.41990317 125.97695511 -139.07649025 126.24758397 -142.828125 125.1328125 C-142.498125 123.4828125 -142.168125 121.8328125 -141.828125 120.1328125 C-132.90100522 117.21147928 -124.03760537 114.95537833 -114.828125 113.1328125 C-115.7871875 111.988125 -115.7871875 111.988125 -116.765625 110.8203125 C-120.47318466 105.98924991 -120.48890212 101.01556438 -119.828125 95.1328125 C-117.01599391 89.50855033 -112.65839622 85.51573081 -106.828125 83.1328125 C-103.99334717 82.8543396 -103.99334717 82.8543396 -100.68261719 82.81396484 C-99.44163269 82.79409515 -98.20064819 82.77422546 -96.92205811 82.75375366 C-95.57304055 82.74187826 -94.22402111 82.73021535 -92.875 82.71875 C-91.49064994 82.70003343 -90.10631122 82.68045965 -88.72198486 82.6600647 C-85.08559873 82.60878888 -81.44917563 82.56913904 -77.81262207 82.53192139 C-74.09894703 82.49185305 -70.38542517 82.44077366 -66.671875 82.390625 C-59.39073018 82.29391967 -52.10951111 82.20949787 -44.828125 82.1328125 C-43.30512977 79.19560742 -42.02712198 76.2159476 -40.828125 73.1328125 C-41.69398727 73.14169495 -42.55984955 73.15057739 -43.45195007 73.159729 C-51.61779777 73.23992645 -59.78351291 73.30080306 -67.94966412 73.34006119 C-72.14784758 73.36092292 -76.34570522 73.38921418 -80.54370117 73.43457031 C-84.59616606 73.47807935 -88.64831785 73.50196025 -92.70099831 73.51232147 C-94.24596904 73.51970384 -95.79092292 73.53412013 -97.33576012 73.55573273 C-99.50245361 73.58483558 -101.66785883 73.58876587 -103.8347168 73.58691406 C-105.68337593 73.60023773 -105.68337593 73.60023773 -107.56938171 73.61383057 C-111.47213485 73.0377512 -113.08919295 71.92933933 -115.828125 69.1328125 C-116.86708051 66.43922414 -117.61360718 64.04094859 -118.265625 61.2578125 C-118.67664809 59.64962828 -119.08812808 58.04156078 -119.5 56.43359375 C-119.81807617 55.15282959 -119.81807617 55.15282959 -120.14257812 53.84619141 C-121.36037535 49.02617774 -122.6974034 44.23862576 -124.015625 39.4453125 C-124.73842131 36.78659607 -125.46045817 34.12768104 -126.18066406 31.46826172 C-126.76076365 29.37579088 -127.38131793 27.30033854 -128.01171875 25.22265625 C-129.01168993 21.43807635 -128.84341271 18.90388113 -127.828125 15.1328125 C-126.05325818 13.11232752 -124.6082933 12.24260798 -121.93174171 11.86592865 C-119.47507779 11.75471646 -117.03648422 11.75066739 -114.57739258 11.77636719 C-113.64207199 11.77432281 -112.7067514 11.77227844 -111.74308777 11.77017212 C-108.65274485 11.76716481 -105.56293571 11.78563671 -102.47265625 11.8046875 C-100.32842643 11.80774469 -98.18419464 11.80962112 -96.03996277 11.81036377 C-91.54845572 11.81496618 -87.05712802 11.82939245 -82.56567383 11.8515625 C-76.79493813 11.87989588 -71.02434346 11.89077912 -65.25354481 11.8952446 C-60.82792233 11.89939109 -56.40232864 11.90920125 -51.97672081 11.92111969 C-49.84795043 11.92683441 -47.71917726 11.93158911 -45.5904026 11.93538666 C-42.62377622 11.94222426 -39.65726406 11.95584331 -36.69067383 11.97167969 C-35.35898666 11.97335648 -35.35898666 11.97335648 -34.00039673 11.97506714 C-27.94281372 12.01812378 -27.94281372 12.01812378 -26.828125 13.1328125 C-26.703125 15.6328125 -26.703125 15.6328125 -26.828125 18.1328125 C-28.70601172 20.01069922 -31.41978409 19.25289837 -33.91790771 19.25723267 C-34.79328186 19.25363739 -35.66865601 19.25004211 -36.57055664 19.24633789 C-37.94602913 19.24655693 -37.94602913 19.24655693 -39.34928894 19.2467804 C-42.39564336 19.2460809 -45.44193745 19.23828678 -48.48828125 19.23046875 C-50.59435493 19.2286047 -52.70042903 19.22718074 -54.8065033 19.22618103 C-60.36155383 19.22235481 -65.91657841 19.21252364 -71.47161865 19.20147705 C-77.1353724 19.19126517 -82.79913033 19.18668389 -88.46289062 19.18164062 C-99.58464685 19.17090146 -110.70638377 19.1538238 -121.828125 19.1328125 C-120.88747392 22.76746269 -119.94397123 26.40136706 -119 30.03515625 C-118.60530518 31.56045959 -118.60530518 31.56045959 -118.20263672 33.11657715 C-115.4003522 43.89243891 -112.34948953 54.56871892 -108.828125 65.1328125 C-85.398125 65.4628125 -61.968125 65.7928125 -37.828125 66.1328125 C-37.498125 64.1528125 -37.168125 62.1728125 -36.828125 60.1328125 C-35.838125 57.8228125 -34.848125 55.5128125 -33.828125 53.1328125 C-56.928125 53.1328125 -80.028125 53.1328125 -103.828125 53.1328125 C-104.158125 51.4828125 -104.488125 49.8328125 -104.828125 48.1328125 C-102.93530942 46.23999692 -99.62205783 46.95812994 -97.10522461 46.92749023 C-96.05161995 46.91264084 -96.05161995 46.91264084 -94.97673035 46.89749146 C-92.64467796 46.86579128 -90.31260516 46.84108562 -87.98046875 46.81640625 C-86.36763465 46.79584406 -84.75480604 46.77484779 -83.14198303 46.75343323 C-78.88903225 46.69813658 -74.63603223 46.64876094 -70.38299561 46.60058594 C-66.04630125 46.55042619 -61.70967873 46.49471135 -57.37304688 46.43945312 C-48.85813359 46.33177875 -40.34316035 46.23035455 -31.828125 46.1328125 C-30.838125 43.1628125 -29.848125 40.1928125 -28.828125 37.1328125 C-30.36574745 37.13614342 -30.36574745 37.13614342 -31.93443298 37.13954163 C-41.5731946 37.15977291 -51.21195194 37.17478457 -60.85072994 37.18462467 C-65.80666422 37.18985353 -70.76258142 37.19695124 -75.71850586 37.20825195 C-80.49711336 37.21908072 -85.27570438 37.22508931 -90.0543232 37.22768974 C-91.88166119 37.22954401 -93.70899824 37.23316466 -95.53632927 37.23854256 C-98.08665829 37.24575286 -100.63691837 37.24680345 -103.18725586 37.24633789 C-103.95042114 37.24993317 -104.71358643 37.25352844 -105.49987793 37.25723267 C-110.71407284 37.24686466 -110.71407284 37.24686466 -111.828125 36.1328125 C-111.953125 33.6328125 -111.953125 33.6328125 -111.828125 31.1328125 C-109.80994292 29.11463042 -105.68237992 29.94764347 -102.91186523 29.92749023 C-101.66806595 29.91264084 -101.66806595 29.91264084 -100.3991394 29.89749146 C-97.64502871 29.8657813 -94.89090074 29.84108162 -92.13671875 29.81640625 C-90.23242227 29.79584493 -88.32813045 29.77484868 -86.42384338 29.75343323 C-81.40149694 29.69812765 -76.37910873 29.64875594 -71.35668945 29.60058594 C-66.23580185 29.55043271 -61.1149752 29.49471447 -55.99414062 29.43945312 C-45.9388541 29.33176783 -35.88351475 29.23034605 -25.828125 29.1328125 C-25.44140625 27.90304688 -25.0546875 26.67328125 -24.65625 25.40625 C-24.13069653 23.7732803 -23.60462749 22.14047647 -23.078125 20.5078125 C-22.69914062 19.29544922 -22.69914062 19.29544922 -22.3125 18.05859375 C-19.85763299 10.50987768 -17.01547237 5.09318758 -9.828125 1.1328125 C-6.51020246 0.30367084 -3.41309845 0.00478025 0 0 Z " fill="#14B014" transform="translate(167.828125,19.8671875)"/>
<path d="M0 0 C7.26 0 14.52 0 22 0 C21.34 1.65 20.68 3.3 20 5 C19.65110323 7.42612245 19.65110323 7.42612245 19.6875 9.875 C19.67074219 10.67679688 19.65398437 11.47859375 19.63671875 12.3046875 C19.99098985 15.84129031 19.99098985 15.84129031 23 22 C15.08 22 7.16 22 -1 22 C1 17 1 17 2 15 C2.19799259 12.99216713 2.19799259 12.99216713 2.1875 10.75 C2.20167969 10.00234375 2.21585937 9.2546875 2.23046875 8.484375 C2.03413301 5.34491481 2.03413301 5.34491481 0 0 Z " fill="#F7FCF7" transform="translate(79,110)"/>
<path d="M0 0 C2.65230564 0.03823143 3.97456823 0.26762763 6.17578125 1.78125 C9.04060876 4.78966075 10.70492949 7.43021379 11 11.625 C10.16724895 16.31868774 9.19400886 17.77468527 5.3125 20.5 C1.15161606 21.71043896 -0.93458461 21.78411902 -5 20.25 C-7.6875 18.5 -7.6875 18.5 -9.6875 15.5 C-10.23272803 12.43524457 -10.23592924 9.56475161 -9.6875 6.5 C-7.25 3.5 -7.25 3.5 -4.6875 1.5 C-3.6875 0.5 -3.6875 0.5 0 0 Z " fill="#F2FAF2" transform="translate(114.6875,109.5)"/>
<path d="M0 0 C2.65230564 0.03823143 3.97456823 0.26762763 6.17578125 1.78125 C9.04060876 4.78966075 10.70492949 7.43021379 11 11.625 C10.16724895 16.31868774 9.19400886 17.77468527 5.3125 20.5 C1.15161606 21.71043896 -0.93458461 21.78411902 -5 20.25 C-7.6875 18.5 -7.6875 18.5 -9.6875 15.5 C-10.23272803 12.43524457 -10.23592924 9.56475161 -9.6875 6.5 C-7.25 3.5 -7.25 3.5 -4.6875 1.5 C-3.6875 0.5 -3.6875 0.5 0 0 Z " fill="#F3FBF3" transform="translate(64.6875,109.5)"/>
<path d="M0 0 C2.5625 0.1875 2.5625 0.1875 4.5625 2.1875 C4.8125 4.6875 4.8125 4.6875 4.5625 7.1875 C2.5625 9.1875 2.5625 9.1875 0.0625 9.5 C-1.175 9.3453125 -1.175 9.3453125 -2.4375 9.1875 C-4.4375 6.1875 -4.4375 6.1875 -4.125 3.5625 C-3.16420807 0.24340062 -3.16420807 0.24340062 0 0 Z " fill="#19B219" transform="translate(114.4375,115.8125)"/>
<path d="M0 0 C2.5625 0.1875 2.5625 0.1875 4.5625 2.1875 C4.8125 4.6875 4.8125 4.6875 4.5625 7.1875 C2.5625 9.1875 2.5625 9.1875 0.0625 9.5 C-1.175 9.3453125 -1.175 9.3453125 -2.4375 9.1875 C-4.4375 6.1875 -4.4375 6.1875 -4.125 3.5625 C-3.16420807 0.24340062 -3.16420807 0.24340062 0 0 Z " fill="#19B219" transform="translate(64.4375,115.8125)"/>
</svg>
